<svg id="Layer_1" enable-background="new 0 0 511.998 511.998" height="512" viewBox="0 0 511.998 511.998" width="512" xmlns="http://www.w3.org/2000/svg"><g><g><path d="m331.619 290.224h30v107.724h-30z" fill="#725d57"/></g><g><path d="m331.619 290.224h30v107.724h-30z" fill="#53433f"/></g><g><path d="m150.374 290.224h30v107.724h-30z" fill="#725d57"/></g><g><path d="m240.999 300.573h30v97.375h-30z" fill="#725d57"/></g><path d="m255.999 300.573h15v97.375h-15z" fill="#53433f"/><g><path d="m422.244 300.573h30v97.375h-30z" fill="#725d57"/></g><g><path d="m422.244 300.573h30v97.375h-30z" fill="#53433f"/></g><g><path d="m59.753 300.573h30v97.375h-30z" fill="#725d57"/></g><path d="m418.288 155.177c-1.791-15.272-8.332-29.361-18.672-40.516.311-2.333.467-4.688.467-7.055 0-36.406-41.727-59.39-46.484-61.891l-6.979-3.668-6.979 3.668c-.459.242-11.382 6.029-22.254 15.757-15.852 14.183-24.229 30.136-24.229 46.134 0 2.366.156 4.721.467 7.054-10.339 11.153-16.88 25.241-18.672 40.511l-.209 1.78 15.438 127.022 5.013 3.836c14.885 11.393 32.668 17.415 51.426 17.415 18.76 0 36.544-6.023 51.431-17.417l5.012-3.836 15.436-127.015z" fill="#00da80"/><path d="m418.288 155.177c-1.791-15.272-8.332-29.361-18.672-40.516.311-2.333.467-4.688.467-7.055 0-36.406-41.727-59.39-46.484-61.891l-6.979-3.668-6.979 3.668c-.459.242-11.382 6.029-22.254 15.757-15.852 14.183-24.229 30.136-24.229 46.134 0 2.366.156 4.721.467 7.054-10.339 11.153-16.88 25.241-18.672 40.511l-.209 1.78 15.438 127.022 5.013 3.836c14.885 11.393 32.668 17.415 51.426 17.415 18.76 0 36.544-6.023 51.431-17.417l5.012-3.836 15.436-127.015z" fill="#12b3b4"/><path d="m218.371 114.661c.311-2.333.467-4.689.467-7.055 0-36.406-41.727-59.39-46.485-61.891l-6.979-3.668-6.979 3.668c-.459.242-11.382 6.029-22.255 15.757-15.851 14.183-24.229 30.136-24.229 46.134 0 2.366.156 4.721.466 7.054-10.337 11.153-16.879 25.241-18.671 40.511l-.208 1.78 15.438 127.022 5.013 3.836c14.886 11.393 32.668 17.415 51.426 17.415 18.759 0 36.543-6.023 51.43-17.417l5.012-3.836 15.436-127.015-.208-1.779c-1.793-15.273-8.334-29.362-18.674-40.516z" fill="#00da80"/><path d="m0 382.948h511.998v87.003h-511.998z" fill="#00da80"/><g fill="#bee75e"><path d="m319.933 192.23c0-15.895-5.852-31-16.306-42.652.196-1.762.295-3.537.295-5.319 0-32.431-36.753-52.686-40.944-54.889l-6.979-3.668-6.979 3.668c-4.191 2.203-40.944 22.457-40.944 54.889 0 1.782.099 3.557.295 5.319-10.454 11.652-16.305 26.757-16.305 42.652 0 3.043.216 6.079.646 9.083-7.458 11.854-11.368 25.411-11.368 39.604 0 41.166 33.49 74.656 74.656 74.656 41.165 0 74.655-33.49 74.655-74.656 0-14.193-3.909-27.749-11.367-39.603.429-3.005.645-6.041.645-9.084z"/><path d="m500.532 201.313c.43-3.004.646-6.041.646-9.083 0-15.894-5.853-31-16.306-42.652.197-1.762.296-3.537.296-5.319 0-32.432-36.754-52.686-40.945-54.889l-6.979-3.668-6.979 3.668c-4.19 2.203-40.943 22.458-40.943 54.889 0 1.782.099 3.557.295 5.319-10.453 11.652-16.305 26.757-16.305 42.652 0 3.044.216 6.081.646 9.083-7.459 11.854-11.368 25.41-11.368 39.603 0 41.166 33.49 74.656 74.655 74.656 41.166 0 74.656-33.49 74.656-74.656-.001-14.193-3.911-27.749-11.369-39.603z"/><path d="m138.687 192.23c0-15.895-5.852-31-16.306-42.652.197-1.762.295-3.537.295-5.319 0-32.431-36.753-52.686-40.944-54.889l-6.979-3.668-6.979 3.668c-4.191 2.203-40.944 22.457-40.944 54.889 0 1.782.099 3.557.295 5.319-10.453 11.652-16.305 26.758-16.305 42.652 0 3.043.216 6.08.646 9.083-7.458 11.854-11.368 25.41-11.368 39.603 0 41.166 33.49 74.656 74.656 74.656 41.165 0 74.655-33.49 74.655-74.656 0-14.193-3.91-27.749-11.368-39.603.43-3.003.646-6.039.646-9.083z"/></g><path d="m500.532 201.313c.43-3.004.646-6.041.646-9.083 0-15.894-5.853-31-16.306-42.652.197-1.762.296-3.537.296-5.319 0-32.432-36.754-52.686-40.945-54.889l-6.979-3.668-6.979 3.668c-4.19 2.203-40.943 22.458-40.943 54.889 0 1.782.099 3.557.295 5.319-10.453 11.652-16.305 26.757-16.305 42.652 0 3.044.216 6.081.646 9.083-7.459 11.854-11.368 25.41-11.368 39.603 0 41.166 33.49 74.656 74.655 74.656 41.166 0 74.656-33.49 74.656-74.656-.001-14.193-3.911-27.749-11.369-39.603z" fill="#00da80"/><path d="m255.999 382.948h255.999v87.003h-255.999z" fill="#12b3b4"/><path d="m330.654 240.917c0-14.193-3.909-27.749-11.367-39.603.43-3.004.646-6.041.646-9.083 0-15.895-5.852-31-16.306-42.652.196-1.762.295-3.537.295-5.319 0-32.431-36.753-52.686-40.944-54.889l-6.979-3.668v229.871c41.165-.001 74.655-33.492 74.655-74.657z" fill="#00da80"/></g></svg>