<svg id="Capa_1" enable-background="new 0 0 512 512" height="512" viewBox="0 0 512 512" width="512" xmlns="http://www.w3.org/2000/svg"><g><path d="m270.211 54.651 45.191 39.531c5.476 4.787 12.855 6.243 19.74 3.894 6.879-2.348 11.826-8.007 13.232-15.137l.337-1.706c65.025 33.516 106.533 101.096 106.533 174.767 0 13.696 11.143 24.839 24.839 24.839s24.839-11.143 24.839-24.839c0-8.539-.451-17.163-1.341-25.633-.434-4.119-4.126-7.111-8.242-6.675-4.12.433-7.108 4.123-6.676 8.242.835 7.951 1.259 16.048 1.259 24.066 0 5.426-4.414 9.84-9.84 9.84s-9.84-4.414-9.84-9.84c0-82.724-48.633-158.317-123.899-192.581-2.088-.95-4.493-.893-6.532.154-2.04 1.047-3.488 2.969-3.932 5.218l-2.222 11.242c-.515 2.612-2.522 3.56-3.361 3.846-.841.288-3.014.765-5.021-.99l-45.191-39.531c-2.002-1.75-1.818-3.962-1.646-4.832.172-.872.845-2.992 3.371-3.852l56.816-19.378c2.525-.861 4.352.409 5.021.994s2.169 2.228 1.653 4.841l-2.54 12.839c-.693 3.506 1.184 7.015 4.486 8.384 68.532 28.403 119.588 88.561 136.575 160.921.947 4.033 4.99 6.532 9.015 5.587 4.033-.947 6.534-4.983 5.588-9.015-17.617-75.04-69.651-137.758-139.772-168.918l1.363-6.891c1.407-7.134-1.02-14.251-6.493-19.038-5.474-4.788-12.851-6.246-19.736-3.901l-56.816 19.378c-6.886 2.345-11.838 8.006-13.248 15.143-1.407 7.134 1.02 14.249 6.49 19.031z"/><path d="m247.207 457.348-45.186-39.528c-5.473-4.788-12.847-6.245-19.734-3.899-6.882 2.346-11.832 8.006-13.241 15.139l-.338 1.711c-65.025-33.518-106.535-101.1-106.535-174.771 0-13.696-11.142-24.838-24.838-24.838s-24.838 11.142-24.838 24.838c0 48.885 14.416 96.252 41.688 136.982 26.031 38.876 62.102 69.231 104.584 88.092l-1.361 6.891c-1.409 7.134 1.017 14.251 6.491 19.038 3.751 3.281 8.396 4.997 13.164 4.997 2.188 0 4.403-.362 6.569-1.1l56.823-19.376c6.883-2.346 11.832-8.006 13.241-15.138 1.409-7.134-1.016-14.251-6.489-19.038zm-8.226 16.13c-.172.871-.845 2.989-3.367 3.849l-56.824 19.376c-2.524.86-4.349-.406-5.017-.991-.668-.584-2.166-2.226-1.65-4.84l2.538-12.843c.693-3.506-1.185-7.014-4.486-8.382-42.199-17.49-77.997-46.886-103.525-85.01-25.615-38.253-39.153-82.734-39.153-128.637 0-5.425 4.414-9.839 9.839-9.839s9.839 4.413 9.839 9.839c0 82.725 48.634 158.319 123.901 192.584 2.086.95 4.493.893 6.532-.154 2.04-1.047 3.488-2.969 3.933-5.218l2.222-11.245c.517-2.614 2.526-3.562 3.367-3.849.841-.286 3.012-.763 5.017.991l45.185 39.528c2.004 1.754 1.821 3.969 1.649 4.841z"/><path d="m364.041 358.767c9.568-9.707 17.704-20.602 24.243-32.473 28.773-3.358 50.725-27.636 50.725-57.097 0-24.28-15.386-45.917-37.912-54.078-2.886-10.292-6.9-20.247-11.963-29.694 2.284-6.191 3.534-12.878 3.534-19.851 0-31.715-25.802-57.516-57.517-57.516-10.206 0-19.793 2.684-28.111 7.366-15.451-5.332-31.633-8.037-48.159-8.037-32.369 0-63.966 10.716-89.598 30.272-9.446-5.645-20.478-8.9-32.259-8.9-34.785 0-63.085 28.3-63.085 63.085 0 25.623 15.364 47.711 37.356 57.577-.073 1.921-.111 3.813-.111 5.66 0 6.674.45 13.372 1.339 19.909.511 3.762 3.728 6.491 7.422 6.491.337 0 .678-.023 1.02-.069 4.104-.558 6.979-4.337 6.422-8.441-.798-5.87-1.202-11.889-1.202-17.889 0-.363.007-.735.01-1.102 3.522.612 7.136.949 10.83.949 34.785 0 63.084-28.3 63.084-63.085 0-17.412-7.091-33.198-18.536-44.624 22.432-16.069 49.555-24.834 77.309-24.834 11.536 0 22.881 1.471 33.874 4.368-9.383 10.239-15.12 23.871-15.12 38.82 0 31.715 25.802 57.516 57.516 57.516 18.24 0 34.511-8.544 45.056-21.829 3.092 6.96 5.582 14.17 7.425 21.556 2.62 10.508 3.948 21.364 3.948 32.268 0 21.373-4.925 41.777-14.637 60.648-3.679 7.155-8.012 13.925-12.913 20.283-5.569-39.311-39.424-69.649-80.248-69.649-44.701 0-81.068 36.367-81.068 81.068 0 10.797 2.139 21.1 5.988 30.53-34.449-14.027-61.675-42.016-74.588-77.595-1.412-3.892-5.711-5.904-9.608-4.491-3.893 1.413-5.904 5.715-4.491 9.609 16.456 45.34 53.801 79.613 100.19 92.155 14.86 18.777 37.828 30.86 63.578 30.86 40.851-.001 74.725-30.383 80.257-69.736zm-178.933-166.924c0 26.514-21.571 48.085-48.085 48.085-26.515 0-48.086-21.571-48.086-48.085s21.571-48.085 48.086-48.085 48.085 21.57 48.085 48.085zm150.043 16.247c-23.444 0-42.516-19.073-42.516-42.517s19.073-42.517 42.516-42.517c23.444 0 42.517 19.073 42.517 42.517s-19.073 42.517-42.517 42.517zm88.858 61.107c0 18.247-11.393 33.803-27.594 39.829 6.742-17.111 10.165-35.191 10.165-53.942 0-7.135-.526-14.251-1.541-21.285 11.581 7.735 18.97 20.93 18.97 35.398zm-140.228 144.306c-36.431 0-66.068-29.638-66.068-66.068s29.638-66.068 66.068-66.068 66.068 29.638 66.068 66.068c.001 36.43-29.637 66.068-66.068 66.068z"/><path d="m507.244 325.275c-3.37-5.402-8.886-9.201-15.135-10.424l-24.697-4.834c-11.848-2.32-23.58 4.999-26.705 16.664l-.601 2.241c-3.125 11.663 3.375 23.867 14.796 27.783l23.804 8.162c2.421.83 4.945 1.24 7.466 1.24 3.752 0 7.493-.91 10.854-2.7 5.62-2.993 9.788-8.236 11.435-14.386l1.492-5.568c1.649-6.151.661-12.776-2.709-18.178zm-11.778 14.294-1.492 5.568c-.585 2.182-2.005 3.968-3.998 5.029-1.993 1.062-4.268 1.243-6.404.511l-23.804-8.162c-3.993-1.369-6.265-5.635-5.174-9.712l.601-2.241s0 0 0-.001c.957-3.569 4.219-5.975 7.796-5.975.509 0 1.024.049 1.541.15l24.697 4.834c2.216.434 4.095 1.728 5.29 3.644 1.195 1.918 1.531 4.174.947 6.355z"/><path d="m455.05 405.841-18.97-16.535c-9.102-7.934-22.922-7.46-31.46 1.078l-1.641 1.64c-8.538 8.538-9.011 22.357-1.077 31.46l16.535 18.969c4.182 4.8 10.231 7.678 16.594 7.896.261.009.521.013.782.013 6.089 0 11.998-2.437 16.316-6.755l4.074-4.075c4.503-4.502 6.96-10.733 6.742-17.096s-3.095-12.411-7.895-16.595zm-9.453 23.086-4.074 4.075c-1.599 1.597-3.729 2.427-5.977 2.357-2.258-.077-4.317-1.058-5.802-2.76l-16.535-18.969c-2.773-3.183-2.608-8.014.376-10.997l1.641-1.64s0-.001.001-.001c1.562-1.563 3.631-2.352 5.704-2.352 1.887 0 3.777.654 5.294 1.976l18.97 16.534c1.702 1.484 2.683 3.544 2.76 5.802s-.76 4.378-2.358 5.975z"/><path d="m369.3 442.307c-3.917-11.423-16.124-17.923-27.784-14.796l-2.241.6c-11.663 3.125-18.982 14.856-16.663 26.706l4.835 24.696c1.223 6.248 5.022 11.765 10.424 15.135 3.687 2.301 7.944 3.491 12.231 3.491 1.993 0 3.994-.258 5.946-.781l5.567-1.492c6.15-1.648 11.394-5.816 14.386-11.436 2.993-5.62 3.524-12.297 1.46-18.319zm-6.537 35.073c-1.061 1.994-2.848 3.413-5.03 3.998l-5.567 1.492c-2.18.585-4.437.248-6.354-.948-1.916-1.195-3.21-3.075-3.643-5.291l-4.835-24.696c-.811-4.143 1.748-8.244 5.824-9.336l2.241-.6h.001c.69-.185 1.387-.274 2.073-.274 3.366 0 6.503 2.13 7.639 5.446l8.161 23.805c.732 2.137.551 4.411-.51 6.404z"/><path d="m44.588 191.793c1.477.289 2.95.428 4.407.428 10.231 0 19.563-6.882 22.298-17.092l.601-2.241c3.125-11.663-3.375-23.867-14.796-27.783l-23.804-8.162c-6.024-2.065-12.701-1.533-18.32 1.46-5.62 2.993-9.788 8.236-11.435 14.386l-1.492 5.568c-1.648 6.15-.66 12.775 2.71 18.176s8.886 9.201 15.135 10.424zm-27.106-23.199c-1.196-1.916-1.532-4.173-.948-6.354l1.492-5.568c.585-2.182 2.005-3.968 3.998-5.029 1.188-.633 2.476-.953 3.776-.953.88 0 1.766.147 2.628.442l23.804 8.162c3.993 1.369 6.265 5.635 5.174 9.712l-.601 2.241v.001c-1.093 4.077-5.185 6.637-9.337 5.825l-24.697-4.835c-2.215-.434-4.093-1.728-5.289-3.644z"/><path d="m56.95 95.968 18.97 16.535c4.338 3.78 9.745 5.651 15.142 5.651 5.93 0 11.848-2.26 16.318-6.73l1.641-1.64c8.538-8.538 9.011-22.357 1.077-31.46l-16.535-18.97c-4.183-4.799-10.231-7.677-16.594-7.895-6.367-.223-12.596 2.239-17.098 6.742l-4.074 4.075c-4.503 4.502-6.96 10.734-6.742 17.097.217 6.363 3.095 12.412 7.895 16.595zm9.453-23.086 4.074-4.075c1.53-1.529 3.541-2.362 5.691-2.362.095 0 .19.001.286.005 2.258.077 4.317 1.057 5.802 2.76l16.534 18.97c2.773 3.183 2.608 8.014-.376 10.997l-1.641 1.64s0 .001-.001.001c-2.984 2.985-7.815 3.15-10.998.377l-18.97-16.535c-1.702-1.484-2.683-3.544-2.76-5.801-.076-2.257.761-4.379 2.359-5.977z"/><path d="m142.699 59.502c3.253 9.489 12.223 15.579 21.854 15.579 1.963 0 3.955-.253 5.93-.782l2.242-.601c11.663-3.125 18.982-14.856 16.663-26.706l-4.835-24.696c-1.223-6.248-5.022-11.765-10.424-15.135s-12.026-4.359-18.177-2.71l-5.567 1.492c-6.15 1.648-11.393 5.816-14.386 11.436-2.993 5.619-3.525 12.297-1.46 18.319zm6.538-35.073c1.061-1.994 2.848-3.413 5.03-3.998l5.567-1.492c.699-.187 1.407-.28 2.108-.28 1.485 0 2.944.416 4.246 1.228 1.916 1.196 3.21 3.074 3.643 5.291l4.835 24.696c.811 4.143-1.748 8.244-5.824 9.336l-2.241.6h-.001c-4.077 1.093-8.344-1.18-9.713-5.172l-8.161-23.805c-.731-2.136-.55-4.411.511-6.404z"/></g></svg>