<svg id="outline" height="512" viewBox="0 0 512 512" width="512" xmlns="http://www.w3.org/2000/svg"><path d="m488 16h-400a7.99877 7.99877 0 0 0 -5.65674 2.34326l-63.99615 63.99616a7.97475 7.97475 0 0 0 -2.34711 5.66058v400a7.99977 7.99977 0 0 0 8 8h400a7.975 7.975 0 0 0 5.66064-2.34717l63.9961-63.99609a7.99877 7.99877 0 0 0 2.34326-5.65674v-400a7.99977 7.99977 0 0 0 -8-8zm-72 400h-38.64941l-62.66333-79.37378 21.939-21.939 79.37374 62.66337zm16-26.01782 32.95581 26.01782h-32.95581zm-336-293.98218h38.64935l62.66346 79.37372-21.93909 21.93909-79.37372-62.66346zm-16 26.01776-32.95587-26.01776h32.95587zm16-42.01776v-32.95587l26.01776 32.95587zm216 131.31348 16-16v105.37252l-16 16.00024zm20.68652-43.31348h-120.80952l-56.8421-72h249.65162zm-148.68652 48h112v112h-112zm11.31372-16 16.00028-16h105.37252l-16 16zm148.68628 100.12305v-120.80957l72-72v249.65161zm76.68652-220.12305h-278.28326l-37.89472-48h364.178zm-340.68652 0h-36.68652l36.68652-36.68652zm-48 24.50854 48 37.89472v33.59674h16v-20.96515l72 56.8421v120.80957l-72 72v-20.68652h-16v36.68652l-48 48zm59.31348 327.49146h36.68652v-16h-20.68652l72-72h120.80957l56.842 72h-20.96505v16h33.59668l37.89478 48h-364.17798zm298.6687 0h26.01782v32.95581zm42.01782 0h36.68652l-36.68652 36.68652zm0-62.40332v-278.2832l48-48v364.178z"/><path d="m144 416h16v16h-16z"/><path d="m176 416h16v16h-16z"/><path d="m208 416h16v16h-16z"/><path d="m240 416h16v16h-16z"/><path d="m272 416h16v16h-16z"/><path d="m304 416h16v16h-16z"/><path d="m80 352h16v16h-16z"/><path d="m80 320h16v16h-16z"/><path d="m80 288h16v16h-16z"/><path d="m80 256h16v16h-16z"/><path d="m80 224h16v16h-16z"/><path d="m80 192h16v16h-16z"/></svg>