<svg id="Capa_1" enable-background="new 0 0 512 512" height="512" viewBox="0 0 512 512" width="512" xmlns="http://www.w3.org/2000/svg"><path d="m340.276 321.893-29.411-4.092c-3.644-.507-6.746-2.981-7.943-6.46-1.55-4.503-3.37-8.881-5.439-13.115-1.618-3.311-1.182-7.26 1.04-10.2l17.909-23.698c2.833-3.749 2.469-9.014-.854-12.337l-25.366-25.366c-3.323-3.323-8.588-3.688-12.337-.854l-23.698 17.909c-2.94 2.222-6.889 2.658-10.2 1.04-4.234-2.069-8.611-3.889-13.115-5.439-3.479-1.197-5.953-4.299-6.46-7.943l-4.092-29.411c-.648-4.655-4.628-8.12-9.328-8.12h-35.872c-4.7 0-8.68 3.465-9.328 8.12l-4.092 29.411c-.507 3.644-2.981 6.746-6.46 7.943-4.503 1.55-8.881 3.37-13.115 5.439-3.311 1.618-7.26 1.182-10.2-1.04l-23.698-17.909c-3.749-2.833-9.014-2.469-12.337.854l-25.366 25.366c-3.323 3.323-3.688 8.588-.854 12.337l17.909 23.698c2.222 2.94 2.658 6.889 1.04 10.2-2.069 4.234-3.889 8.611-5.439 13.115-1.197 3.479-4.299 5.953-7.943 6.46l-29.411 4.092c-4.655.648-8.12 4.628-8.12 9.328v35.872c0 4.7 3.465 8.68 8.12 9.328l29.411 4.092c3.644.507 6.746 2.981 7.943 6.46 1.55 4.503 3.37 8.881 5.439 13.115 1.618 3.311 1.182 7.26-1.04 10.2l-17.909 23.698c-2.833 3.749-2.469 9.014.854 12.337l25.366 25.366c3.323 3.323 8.588 3.688 12.337.854l23.698-17.909c2.94-2.222 6.889-2.659 10.2-1.04 4.234 2.069 8.611 3.889 13.115 5.439 3.479 1.197 5.953 4.299 6.46 7.943l4.092 29.411c.648 4.655 4.628 8.12 9.328 8.12h35.872c4.7 0 8.68-3.465 9.328-8.12l4.092-29.411c.507-3.644 2.981-6.746 6.46-7.943 4.503-1.55 8.881-3.37 13.115-5.439 3.311-1.618 7.26-1.182 10.2 1.04l23.698 17.909c3.749 2.833 9.014 2.469 12.337-.854l25.366-25.366c3.323-3.323 3.688-8.588.854-12.337l-17.909-23.698c-2.222-2.94-2.658-6.889-1.04-10.2 2.069-4.234 3.889-8.611 5.439-13.115 1.197-3.479 4.299-5.953 7.943-6.46l29.411-4.092c4.655-.648 8.12-4.628 8.12-9.328v-35.872c0-4.7-3.465-8.68-8.12-9.328zm-147.228 93.286c-36.463 0-66.022-29.559-66.022-66.022s29.559-66.022 66.022-66.022 66.022 29.559 66.022 66.022-29.559 66.022-66.022 66.022z" fill="#8c9ba6"/><path d="m340.276 321.893-25.576-3.558v31.249c0 4.7-3.465 8.68-8.12 9.328l-29.411 4.092c-3.644.507-6.746 2.981-7.943 6.46-1.55 4.503-3.37 8.881-5.439 13.115-1.618 3.311-1.182 7.26 1.04 10.2l17.909 23.698c2.833 3.749 2.469 9.014-.854 12.337l-25.366 25.366c-.438.438-.912.822-1.41 1.156l22.768 17.207c3.749 2.833 9.014 2.469 12.337-.854l25.366-25.366c3.323-3.323 3.688-8.588.854-12.337l-17.909-23.698c-2.222-2.94-2.659-6.889-1.04-10.2 2.069-4.234 3.889-8.611 5.439-13.115 1.197-3.479 4.299-5.953 7.943-6.46l29.411-4.092c4.655-.648 8.12-4.628 8.12-9.328v-35.872c.001-4.7-3.464-8.68-8.119-9.328z" fill="#7c8b96"/><path d="m389.332 126.295-16.582-9.832c-1.324-.785-2.081-2.259-1.937-3.791.215-2.306.335-4.639.335-7.001 0-2.15-.098-4.277-.276-6.38-.129-1.524.651-2.981 1.973-3.75l16.66-9.688c2.637-1.533 3.74-4.776 2.584-7.599l-8.819-21.549c-1.155-2.823-4.215-4.362-7.171-3.607l-18.68 4.774c-1.476.377-3.052-.107-4.026-1.278-2.87-3.448-6.034-6.64-9.458-9.538-1.163-.984-1.633-2.564-1.244-4.037l4.932-18.639c.78-2.949-.733-6.022-3.546-7.201l-21.474-9.001c-2.813-1.179-6.065-.104-7.621 2.52l-9.832 16.582c-.785 1.324-2.259 2.081-3.791 1.937-2.306-.215-4.639-.335-7.001-.335-2.15 0-4.277.098-6.38.276-1.524.129-2.981-.651-3.75-1.973l-9.688-16.66c-1.533-2.637-4.776-3.74-7.599-2.584l-21.549 8.819c-2.823 1.155-4.362 4.215-3.607 7.171l4.774 18.68c.377 1.476-.107 3.052-1.278 4.026-3.448 2.87-6.64 6.034-9.538 9.458-.984 1.163-2.564 1.633-4.037 1.244l-18.639-4.932c-2.949-.78-6.022.733-7.201 3.546l-9.002 21.474c-1.179 2.813-.104 6.065 2.52 7.621l16.582 9.832c1.324.785 2.081 2.259 1.937 3.791-.215 2.306-.335 4.639-.335 7.001 0 2.15.098 4.277.276 6.38.129 1.524-.651 2.981-1.973 3.75l-16.66 9.688c-2.637 1.533-3.74 4.776-2.584 7.599l8.819 21.549c1.155 2.823 4.215 4.362 7.171 3.607l18.68-4.774c1.476-.377 3.052.107 4.026 1.278 2.87 3.448 6.034 6.64 9.458 9.538 1.163.984 1.633 2.564 1.244 4.037l-4.932 18.639c-.78 2.949.733 6.022 3.546 7.201l21.474 9.001c2.813 1.179 6.065.104 7.621-2.52l9.832-16.582c.785-1.324 2.259-2.081 3.791-1.937 2.306.215 4.639.335 7.001.335 2.15 0 4.277-.098 6.38-.276 1.524-.129 2.981.651 3.75 1.973l9.688 16.66c1.533 2.637 4.776 3.74 7.599 2.584l21.549-8.819c2.823-1.155 4.362-4.215 3.607-7.171l-4.774-18.68c-.377-1.476.107-3.052 1.278-4.026 3.448-2.87 6.64-6.034 9.538-9.458.984-1.163 2.564-1.633 4.037-1.244l18.639 4.932c2.949.78 6.022-.733 7.201-3.546l9.002-21.474c1.179-2.814.104-6.066-2.52-7.621zm-94.974 8.205c-15.922 0-28.829-12.907-28.829-28.829s12.907-28.829 28.829-28.829 28.829 12.907 28.829 28.829-12.908 28.829-28.829 28.829z" fill="#c2d0da"/><path d="m389.332 126.295-14.052-8.332-7.119 16.984c-1.179 2.813-4.252 4.326-7.201 3.546l-18.639-4.932c-1.473-.39-3.052.081-4.037 1.244-2.898 3.423-6.09 6.588-9.538 9.458-1.171.975-1.655 2.55-1.278 4.026l4.774 18.68c.755 2.955-.784 6.015-3.607 7.171l-21.549 8.819c-1.054.431-2.167.547-3.227.386.24.241.455.51.63.812l9.688 16.66c1.533 2.637 4.776 3.74 7.599 2.584l21.549-8.819c2.823-1.155 4.362-4.215 3.607-7.171l-4.774-18.68c-.377-1.476.107-3.052 1.278-4.026 3.448-2.87 6.64-6.034 9.538-9.458.984-1.163 2.564-1.633 4.037-1.244l18.639 4.932c2.949.78 6.022-.733 7.201-3.546l9.002-21.474c1.178-2.813.103-6.065-2.521-7.62z" fill="#b6c1cc"/><path d="m272.914 8.72c-.811-.608-1.752-1.015-2.747-1.165.725.728 1.707 1.153 2.747 1.165z" fill="#bfbfbf"/><path d="m471.722 273.668-9.886-6.025c-1.498-.913-2.337-2.594-2.184-4.341.133-1.51.203-3.037.203-4.582 0-.958-.027-1.91-.078-2.856-.095-1.748.801-3.397 2.325-4.258l10.075-5.696c1.823-1.031 2.607-3.247 1.837-5.195l-5.874-14.865c-.77-1.947-2.857-3.029-4.892-2.536l-11.25 2.73c-1.699.412-3.479-.179-4.605-1.516-1.601-1.901-3.333-3.688-5.182-5.348-1.302-1.169-1.836-2.969-1.368-4.656l3.099-11.16c.56-2.018-.453-4.14-2.374-4.972l-14.665-6.358c-1.921-.833-4.162-.122-5.252 1.666l-6.025 9.886c-.913 1.498-2.594 2.337-4.341 2.184-1.51-.133-3.038-.203-4.582-.203-.958 0-1.91.027-2.856.078-1.748.095-3.397-.801-4.258-2.325l-5.696-10.075c-1.031-1.823-3.247-2.607-5.195-1.837l-14.865 5.874c-1.947.77-3.029 2.857-2.536 4.892l2.73 11.25c.412 1.699-.179 3.479-1.516 4.605-1.901 1.601-3.688 3.333-5.348 5.182-1.169 1.302-2.969 1.836-4.656 1.368l-11.16-3.099c-2.018-.56-4.14.453-4.972 2.374l-6.358 14.665c-.833 1.921-.122 4.162 1.666 5.252l9.886 6.025c1.498.913 2.337 2.594 2.184 4.341-.133 1.51-.203 3.037-.203 4.582 0 .958.027 1.91.078 2.856.095 1.748-.801 3.397-2.325 4.258l-10.075 5.696c-1.823 1.031-2.607 3.247-1.837 5.195l5.874 14.865c.77 1.947 2.857 3.029 4.892 2.536l11.25-2.73c1.699-.412 3.479.179 4.605 1.516 1.601 1.901 3.333 3.688 5.182 5.348 1.302 1.169 1.836 2.969 1.368 4.656l-3.099 11.16c-.56 2.018.453 4.14 2.374 4.972l14.665 6.358c1.921.833 4.162.122 5.252-1.666l6.025-9.886c.913-1.498 2.594-2.337 4.341-2.184 1.51.133 3.037.203 4.582.203.958 0 1.91-.027 2.856-.078 1.748-.095 3.397.801 4.258 2.325l5.696 10.075c1.031 1.823 3.247 2.607 5.195 1.837l14.865-5.874c1.947-.77 3.03-2.857 2.536-4.892l-2.73-11.25c-.412-1.699.179-3.479 1.516-4.605 1.901-1.601 3.688-3.333 5.348-5.182 1.169-1.302 2.969-1.836 4.656-1.368l11.16 3.099c2.018.56 4.139-.453 4.972-2.374l6.358-14.665c.833-1.922.122-4.163-1.666-5.252zm-65.019 18.893c-18.69 0-33.842-15.152-33.842-33.842s15.152-33.842 33.842-33.842 33.842 15.152 33.842 33.842-15.152 33.842-33.842 33.842z" fill="#c2d0da"/><path d="m471.722 273.668-7.787-4.746-6.319 14.574c-.833 1.921-2.955 2.934-4.972 2.374l-11.16-3.099c-1.687-.468-3.486.065-4.656 1.368-1.66 1.849-3.446 3.581-5.348 5.182-1.338 1.126-1.929 2.906-1.516 4.605l2.73 11.25c.494 2.035-.588 4.123-2.536 4.892l-14.865 5.874c-.126.05-.255.075-.382.112l4.602 8.139c1.031 1.823 3.247 2.607 5.195 1.837l14.865-5.874c1.948-.77 3.03-2.857 2.536-4.892l-2.73-11.25c-.412-1.699.179-3.479 1.516-4.605 1.901-1.601 3.688-3.333 5.348-5.182 1.169-1.302 2.969-1.836 4.656-1.368l11.16 3.099c2.018.56 4.14-.453 4.972-2.374l6.358-14.665c.832-1.921.121-4.162-1.667-5.251z" fill="#b6c1cc"/><path d="m210.984 512h-35.872c-8.393 0-15.595-6.269-16.751-14.582l-4.092-29.411c-.123-.881-.702-1.623-1.476-1.889-4.751-1.636-9.451-3.585-13.967-5.792-.74-.362-1.679-.25-2.389.286l-23.698 17.909c-6.695 5.06-16.221 4.401-22.156-1.534l-25.366-25.366c-5.935-5.935-6.594-15.46-1.534-22.156l17.909-23.698c.536-.71.649-1.648.286-2.39-2.21-4.521-4.158-9.22-5.792-13.966-.266-.774-1.008-1.353-1.889-1.476l-29.411-4.092c-8.313-1.156-14.582-8.357-14.582-16.751v-35.873c0-8.393 6.269-15.595 14.583-16.752l29.41-4.092c.881-.122 1.623-.701 1.889-1.475 1.635-4.748 3.584-9.447 5.792-13.967.142-.291.213-.606.212-.939-.015-4.139 3.328-7.508 7.467-7.523h.028c4.127 0 7.48 3.337 7.495 7.467.01 2.616-.59 5.237-1.735 7.578-1.939 3.968-3.651 8.094-5.086 12.262-2.116 6.151-7.48 10.537-13.997 11.444l-29.411 4.092c-.945.132-1.658.95-1.658 1.904v35.873c0 .954.712 1.772 1.657 1.903l29.411 4.093c6.516.907 11.88 5.292 13.997 11.444 1.434 4.166 3.145 8.292 5.086 12.263 2.862 5.857 2.175 12.758-1.795 18.01l-17.909 23.697c-.575.761-.5 1.844.174 2.518l25.366 25.366c.674.675 1.757.75 2.517.174l23.699-17.909c5.252-3.97 12.153-4.658 18.01-1.795 3.966 1.939 8.092 3.65 12.264 5.086 6.152 2.117 10.537 7.481 11.443 13.997l4.092 29.411c.132.945.95 1.657 1.904 1.657h35.872c.954 0 1.772-.712 1.904-1.657l4.093-29.412c.907-6.516 5.292-11.879 11.443-13.997 4.171-1.436 8.296-3.147 12.263-5.086 5.857-2.862 12.758-2.174 18.011 1.794l23.698 17.909c.761.575 1.844.501 2.518-.174l25.366-25.366c.674-.674.749-1.757.174-2.518l-17.909-23.698c-3.97-5.253-4.657-12.154-1.795-18.01 1.939-3.968 3.651-8.093 5.086-12.264 2.118-6.152 7.482-10.537 13.997-11.443l29.411-4.092c.945-.132 1.657-.95 1.657-1.904v-35.872c0-.954-.712-1.772-1.657-1.904l-29.412-4.093c-6.516-.907-11.88-5.292-13.997-11.444-1.436-4.171-3.147-8.297-5.086-12.262-2.862-5.857-2.174-12.758 1.795-18.01l17.909-23.699c.575-.761.5-1.844-.174-2.518l-25.366-25.366c-.675-.675-1.758-.75-2.518-.174l-23.698 17.909c-5.252 3.97-12.154 4.657-18.01 1.795-3.971-1.941-8.097-3.651-12.263-5.085-6.153-2.118-10.538-7.482-11.444-13.997l-4.092-29.411c-.132-.945-.95-1.658-1.904-1.658h-35.872c-.954 0-1.772.712-1.904 1.657l-4.093 29.412c-.907 6.516-5.292 11.88-11.444 13.997-4.167 1.434-8.293 3.145-12.263 5.085-5.857 2.863-12.758 2.175-18.01-1.795l-23.697-17.909c-.76-.574-1.843-.5-2.518.174l-25.366 25.366c-.674.674-.75 1.757-.174 2.517 2.496 3.303 1.842 8.003-1.46 10.499-3.304 2.495-8.003 1.842-10.499-1.46-5.061-6.696-4.401-16.221 1.534-22.156l25.366-25.365c5.935-5.935 15.459-6.596 22.156-1.534l23.698 17.909c.71.537 1.648.648 2.39.286 4.521-2.21 9.22-4.158 13.966-5.792.773-.266 1.353-1.008 1.476-1.889l4.092-29.411c1.156-8.313 8.358-14.582 16.751-14.582h35.872c8.393 0 15.595 6.269 16.752 14.583l4.092 29.411c.122.881.702 1.623 1.476 1.889 4.745 1.633 9.444 3.581 13.966 5.791.743.363 1.68.251 2.39-.285l23.698-17.91c6.696-5.061 16.22-4.402 22.156 1.534l25.366 25.366c5.935 5.935 6.594 15.46 1.534 22.156l-17.909 23.698c-.536.71-.649 1.647-.286 2.39 2.208 4.516 4.156 9.215 5.792 13.966.267.774 1.008 1.353 1.889 1.476l29.411 4.092c8.313 1.156 14.582 8.357 14.582 16.751v35.872c0 8.393-6.269 15.595-14.582 16.751l-29.411 4.092c-.881.123-1.623.702-1.889 1.476-1.635 4.75-3.584 9.449-5.792 13.967-.363.741-.25 1.68.286 2.39l17.909 23.697c5.061 6.696 4.401 16.221-1.534 22.156l-25.366 25.366c-5.934 5.935-15.458 6.595-22.156 1.534l-23.698-17.909c-.71-.536-1.648-.649-2.39-.286-4.517 2.208-9.216 4.157-13.966 5.792-.774.266-1.353 1.008-1.476 1.889l-4.092 29.411c-1.155 8.317-8.356 14.586-16.75 14.586zm-17.936-89.326c-40.538 0-73.517-32.979-73.517-73.517s32.979-73.517 73.517-73.517c23.936 0 46.445 11.711 60.212 31.326 2.378 3.388 1.56 8.063-1.829 10.441-3.387 2.378-8.062 1.561-10.441-1.829-10.964-15.621-28.886-24.947-47.943-24.947-32.272 0-58.527 26.255-58.527 58.527s26.255 58.527 58.527 58.527 58.527-26.255 58.527-58.527c0-1.81-.083-3.636-.248-5.429-.379-4.122 2.657-7.771 6.778-8.15 4.113-.371 7.77 2.656 8.15 6.778.206 2.247.311 4.535.311 6.8 0 40.538-32.979 73.517-73.517 73.517z"/><path d="m319.504 211.342c-4.733 0-9.315-2.472-11.807-6.757l-8.589-14.771c-3.443.202-6.751.186-10.211-.046l-8.716 14.7c-3.444 5.809-10.736 8.221-16.966 5.609l-21.473-9.001c-6.228-2.611-9.622-9.503-7.894-16.031l4.375-16.532c-2.534-2.266-4.937-4.69-7.18-7.241l-16.569 4.235c-6.543 1.672-13.406-1.781-15.963-8.031l-8.82-21.549c-2.557-6.25-.083-13.523 5.754-16.918l14.77-8.589c-.094-1.604-.141-3.194-.141-4.75 0-1.785.063-3.614.187-5.461l-14.7-8.716c-5.809-3.444-8.221-10.738-5.609-16.966l9.001-21.473c2.611-6.227 9.501-9.619 16.031-7.894l16.532 4.375c2.266-2.534 4.69-4.937 7.241-7.18l-4.235-16.569c-1.671-6.544 1.781-13.407 8.031-15.963l21.549-8.82c6.25-2.556 13.523-.083 16.918 5.754l8.589 14.77c3.444-.202 6.752-.187 10.211.046l8.716-14.7c3.445-5.808 10.738-8.22 16.966-5.609l21.473 9.001c6.229 2.611 9.622 9.503 7.894 16.032l-4.374 16.531c2.533 2.265 4.937 4.689 7.18 7.241l16.569-4.234c6.545-1.67 13.405 1.78 15.963 8.029l8.82 21.55c2.557 6.249.084 13.523-5.754 16.918l-14.77 8.589c.094 1.604.141 3.194.141 4.75 0 1.784-.063 3.613-.187 5.461l14.7 8.716c5.809 3.445 8.22 10.738 5.609 16.966l-9.001 21.473c-2.611 6.229-9.504 9.625-16.032 7.894l-16.531-4.374c-2.264 2.532-4.688 4.936-7.241 7.18l4.235 16.569c1.672 6.542-1.78 13.405-8.03 15.963l-21.55 8.82c-1.663.679-3.398 1.003-5.112 1.003zm-18.45-36.667c4.037 0 7.854 2.172 9.914 5.713l9.083 15.62 19.322-7.907-4.477-17.515c-1.092-4.272.379-8.842 3.745-11.643 3.106-2.585 6.003-5.457 8.612-8.539 2.832-3.344 7.415-4.775 11.676-3.646l17.475 4.624 8.071-19.254-15.547-9.218c-3.799-2.252-5.988-6.546-5.577-10.937.2-2.144.302-4.265.302-6.302 0-1.864-.084-3.797-.249-5.746-.371-4.379 1.855-8.643 5.673-10.863l15.62-9.083-7.907-19.321-17.515 4.476c-4.271 1.09-8.842-.379-11.643-3.746-2.583-3.104-5.456-6.002-8.539-8.612-3.343-2.829-4.774-7.412-3.646-11.675l4.624-17.476-19.254-8.071-9.218 15.547c-2.251 3.798-6.543 5.99-10.934 5.578-4.106-.385-7.97-.4-12.051-.053-4.375.372-8.643-1.855-10.863-5.673l-9.083-15.62-19.322 7.908 4.477 17.514c1.092 4.272-.379 8.843-3.746 11.644-3.103 2.582-6.001 5.456-8.612 8.54-2.828 3.342-7.41 4.773-11.672 3.647l-17.478-4.625-8.071 19.254 15.547 9.218c3.798 2.251 5.987 6.543 5.578 10.934-.201 2.145-.303 4.266-.303 6.305 0 1.864.084 3.797.249 5.746.371 4.379-1.855 8.643-5.673 10.863l-15.62 9.083 7.908 19.322 17.514-4.477c4.274-1.089 8.843.379 11.644 3.745 2.582 3.104 5.456 6.001 8.54 8.613 3.341 2.828 4.773 7.41 3.647 11.672l-4.625 17.478 19.254 8.071 9.218-15.547c2.252-3.799 6.546-5.993 10.937-5.577 4.105.383 7.97.399 12.048.052.314-.028.631-.041.947-.041zm84.452-41.935c.001 0 .002.001.003.002zm-91.148 9.255c-9.703 0-18.825-3.778-25.685-10.639-2.927-2.927-2.926-7.673 0-10.6 2.927-2.926 7.673-2.926 10.6 0 4.029 4.03 9.386 6.248 15.085 6.248 11.764 0 21.334-9.57 21.334-21.334s-9.57-21.334-21.334-21.334c-7.257 0-13.952 3.64-17.91 9.736-2.254 3.473-6.895 4.459-10.368 2.205-3.472-2.254-4.459-6.896-2.205-10.368 6.734-10.372 18.129-16.564 30.483-16.564 20.029 0 36.324 16.295 36.324 36.324s-16.295 36.326-36.324 36.326z"/><path d="m423.202 333.812c-4.117 0-8.094-2.179-10.215-5.93l-4.824-8.532c-1.637.041-3.257.013-4.907-.083l-5.103 8.373c-3.02 4.954-9.31 6.951-14.634 4.643l-14.665-6.358c-5.323-2.308-8.167-8.264-6.614-13.854l2.625-9.455c-1.183-1.127-2.323-2.304-3.41-3.519l-9.533 2.313c-5.639 1.365-11.498-1.669-13.63-7.065l-5.874-14.865c-2.132-5.396.068-11.618 5.119-14.473l8.533-4.825c-.012-.49-.018-.978-.018-1.461 0-1.136.034-2.289.102-3.445l-8.373-5.103c-4.955-3.02-6.95-9.31-4.642-14.634l6.357-14.665c2.308-5.324 8.264-8.166 13.854-6.614l9.455 2.625c1.127-1.183 2.303-2.323 3.519-3.41l-2.313-9.532c-1.368-5.638 1.669-11.498 7.065-13.63l14.865-5.874c5.396-2.132 11.618.068 14.474 5.119l4.825 8.533c1.643-.041 3.258-.013 4.907.083l5.103-8.373c3.019-4.953 9.31-6.951 14.634-4.642l14.665 6.357c5.323 2.308 8.167 8.264 6.614 13.854l-2.625 9.454c1.184 1.128 2.324 2.305 3.41 3.52l9.532-2.313c5.638-1.369 11.498 1.669 13.63 7.064l5.874 14.866c2.132 5.396-.069 11.619-5.12 14.474l-8.533 4.825c.012.488.018.975.018 1.461 0 1.138-.034 2.292-.101 3.446l8.373 5.103c4.953 3.019 6.95 9.31 4.643 14.632l-6.358 14.666c-2.308 5.323-8.264 8.168-13.855 6.614l-9.454-2.625c-1.127 1.183-2.304 2.323-3.519 3.41l2.313 9.532c1.368 5.638-1.669 11.499-7.065 13.63l-14.865 5.874c-1.388.547-2.832.809-4.259.809zm-13.379-29.521c4.369 0 8.354 2.31 10.519 6.14l4.282 7.574 9.523-3.763-2.053-8.459c-1.089-4.487.433-9.126 3.973-12.106 1.625-1.368 3.172-2.867 4.598-4.456 3.095-3.447 7.784-4.818 12.239-3.582l8.392 2.33 4.073-9.394-7.434-4.531c-3.952-2.408-6.155-6.775-5.75-11.397.116-1.316.175-2.636.175-3.927 0-.812-.022-1.635-.067-2.446-.252-4.628 2.093-8.917 6.121-11.193l7.574-4.282-3.763-9.523-8.459 2.053c-4.489 1.09-9.126-.434-12.106-3.973-1.367-1.624-2.866-3.171-4.456-4.599-3.445-3.093-4.818-7.782-3.583-12.236l2.331-8.395-9.395-4.073-4.53 7.434c-2.408 3.953-6.782 6.157-11.399 5.749-2.142-.188-4.24-.224-6.375-.108-4.625.258-8.911-2.093-11.188-6.119l-4.283-7.575-9.523 3.763 2.053 8.46c1.089 4.488-.434 9.127-3.974 12.107-1.624 1.368-3.172 2.868-4.597 4.455-3.094 3.447-7.784 4.818-12.239 3.582l-8.392-2.33-4.073 9.395 7.433 4.53c3.953 2.409 6.156 6.776 5.75 11.398-.116 1.318-.175 2.639-.175 3.925 0 .804.022 1.629.067 2.451.252 4.624-2.093 8.913-6.121 11.189l-7.573 4.282 3.763 9.523 8.459-2.053c4.489-1.089 9.127.433 12.106 3.973 1.369 1.626 2.868 3.173 4.456 4.599 3.447 3.094 4.819 7.784 3.582 12.238l-2.33 8.393 9.394 4.073 4.531-7.434c2.408-3.953 6.776-6.157 11.398-5.749 2.145.189 4.252.225 6.372.107.226-.014.451-.02.674-.02zm57.994-24.226c.001.001.002.002.003.002zm-61.114 19.991c-22.793 0-41.337-18.544-41.337-41.337s18.544-41.337 41.337-41.337 41.337 18.544 41.337 41.337-18.544 41.337-41.337 41.337zm0-67.684c-14.527 0-26.346 11.819-26.346 26.347s11.819 26.347 26.346 26.347 26.347-11.819 26.347-26.347c-.001-14.527-11.82-26.347-26.347-26.347z"/></svg>