<svg id="Capa_1" enable-background="new 0 0 512 512" height="512" viewBox="0 0 512 512" width="512" xmlns="http://www.w3.org/2000/svg"><g><g><g><path d="m255.521 420c-72.9 0-195 6.7-195 46s122.1 46 195 46 195-6.7 195-46-122.1-46-195-46z" fill="#b3f1ff"/></g></g><path d="m471.467 286.143-38.034-23.293-262.53 46.291-47.477 8.372-36.023 36.354 7.815 44.329c1.441 8.235 9.351 13.629 17.373 12.159l59.091-10.416c3.912-.688 7.398-2.9 9.683-6.168l3.563-5.089 12.169-17.381 22.471 15.731c3.252 2.286 7.266 3.237 11.206 2.475l236.352-41.673c8.129-1.432 13.622-9.2 12.159-17.373z" fill="#663d3d"/><path d="m219.568 387.032c3.252 2.286 7.266 3.237 11.206 2.475l236.352-41.673c8.129-1.432 13.622-9.2 12.159-17.373l-7.818-44.318-38.034-23.293-262.53 46.291 14.025 79.541 12.169-17.381z" fill="#4d2e2e"/><path d="m209.959 12.398c-1.435-8.158-9.273-13.637-17.373-12.157l-73.853 13.022-73.862 13.023c-8.16 1.435-13.609 9.214-12.159 17.373l13.023 73.859 25.2 25.556 68.554-12.088 63.13-11.131 20.367-33.591z" fill="#ffe6cc"/><path d="m222.987 86.264-13.028-73.865c-1.435-8.158-9.273-13.637-17.373-12.157l-73.853 13.022 20.758 117.723 63.13-11.131z" fill="#ffccb3"/><path d="m274.161 203.744c-6.271-1.163-12.175-3.406-17.455-7.046-18.481-12.739-19.257-31.577-23.297-51.339l-18.558-26.73-85.767 34.541 62.563 155.581 119.531-35.215-3.68-50.865z" fill="#e1e6f0"/><path d="m467.478 263.533c-6.112-34.628-38.685-63.178-76.289-61.92l-108.017 3.516c-3.076.113-6.012-.827-9.011-1.384l7.019 39.794c1.45 8.16-3.999 15.936-12.159 17.373-8.003 1.465-15.929-3.902-17.372-12.159l-7.286-41.312-27.533 23.954c-6.281 5.438-15.731 4.761-21.167-1.479-5.435-6.256-4.776-15.719 1.479-21.167l38.262-33.29-41.105 7.244c-8.002 1.467-15.928-3.9-17.373-12.157-1.45-8.16 4-15.939 12.159-17.373l44.324-7.812-10.422-59.095-88.627 15.627-88.624 15.627 41.667 236.348 88.631-15.628 295.433-52.095z" fill="#f53"/><path d="m467.478 263.533c-6.112-34.628-38.685-63.178-76.289-61.92l-108.017 3.516c-3.076.113-6.012-.827-9.011-1.384l7.019 39.794c1.45 8.16-3.999 15.936-12.159 17.373-8.003 1.465-15.929-3.902-17.372-12.159l-7.286-41.312-27.533 23.954c-6.281 5.438-15.731 4.761-21.167-1.479-5.435-6.256-4.776-15.719 1.479-21.167l38.262-33.29-41.105 7.244c-8.002 1.467-15.928-3.9-17.373-12.157-1.45-8.16 4-15.939 12.159-17.373l44.324-7.812-10.422-59.095-88.627 15.627 41.674 236.347 295.433-52.095z" fill="#e62e2e"/><path d="m450.521 466c0 39.3-122.1 46-195 46v-92c72.9 0 195 6.7 195 46z" fill="#80dfff"/></g></svg>